<mxfile host="Electron" modified="2024-04-14T16:17:12.413Z" agent="Mozilla/5.0 (Windows NT 10.0; Win64; x64) AppleWebKit/537.36 (KHTML, like Gecko) draw.io/24.1.0 Chrome/120.0.6099.109 Electron/28.1.0 Safari/537.36" etag="bdZ85x4Yc19BI0iIZc57" version="24.1.0" type="device">
  <diagram name="第 1 页" id="9G7HJkJrxqMM3yYemrW4">
    <mxGraphModel dx="1050" dy="621" grid="1" gridSize="10" guides="1" tooltips="1" connect="1" arrows="1" fold="1" page="1" pageScale="1" pageWidth="827" pageHeight="1169" math="0" shadow="0">
      <root>
        <mxCell id="0" />
        <mxCell id="1" parent="0" />
        <mxCell id="m4dmWy65Qhz3F49nOi0M-9" style="edgeStyle=orthogonalEdgeStyle;rounded=0;orthogonalLoop=1;jettySize=auto;html=1;exitX=0.5;exitY=1;exitDx=0;exitDy=0;endArrow=none;endFill=0;" edge="1" parent="1" source="m4dmWy65Qhz3F49nOi0M-1" target="m4dmWy65Qhz3F49nOi0M-8">
          <mxGeometry relative="1" as="geometry" />
        </mxCell>
        <mxCell id="m4dmWy65Qhz3F49nOi0M-11" value="N" style="edgeLabel;html=1;align=center;verticalAlign=middle;resizable=0;points=[];" vertex="1" connectable="0" parent="m4dmWy65Qhz3F49nOi0M-9">
          <mxGeometry x="0.1" y="-4" relative="1" as="geometry">
            <mxPoint as="offset" />
          </mxGeometry>
        </mxCell>
        <mxCell id="m4dmWy65Qhz3F49nOi0M-1" value="API" style="rhombus;whiteSpace=wrap;html=1;" vertex="1" parent="1">
          <mxGeometry x="320" y="290" width="60" height="110" as="geometry" />
        </mxCell>
        <mxCell id="m4dmWy65Qhz3F49nOi0M-7" style="edgeStyle=orthogonalEdgeStyle;rounded=0;orthogonalLoop=1;jettySize=auto;html=1;entryX=0.5;entryY=0;entryDx=0;entryDy=0;endArrow=none;endFill=0;" edge="1" parent="1" target="m4dmWy65Qhz3F49nOi0M-1">
          <mxGeometry relative="1" as="geometry">
            <mxPoint x="350" y="240" as="sourcePoint" />
          </mxGeometry>
        </mxCell>
        <mxCell id="m4dmWy65Qhz3F49nOi0M-10" value="N" style="edgeLabel;html=1;align=center;verticalAlign=middle;resizable=0;points=[];" vertex="1" connectable="0" parent="m4dmWy65Qhz3F49nOi0M-7">
          <mxGeometry x="0.0298" y="-3" relative="1" as="geometry">
            <mxPoint x="1" y="-1" as="offset" />
          </mxGeometry>
        </mxCell>
        <mxCell id="m4dmWy65Qhz3F49nOi0M-2" value="stu" style="rounded=0;whiteSpace=wrap;html=1;" vertex="1" parent="1">
          <mxGeometry x="310" y="190" width="80" height="50" as="geometry" />
        </mxCell>
        <mxCell id="m4dmWy65Qhz3F49nOi0M-8" value="Amd" style="rounded=0;whiteSpace=wrap;html=1;" vertex="1" parent="1">
          <mxGeometry x="310" y="460" width="80" height="50" as="geometry" />
        </mxCell>
      </root>
    </mxGraphModel>
  </diagram>
</mxfile>
